<svg width="100%" height="100%" viewBox="0 0 172 200" xmlns="http://www.w3.org/2000/svg"
     xmlns:xlink="http://www.w3.org/1999/xlink">
      <path fill="#FFFFFF"
            d="M170.537 56.7459C169.525 53.2368 167.904 49.881 165.837 46.9065C163.763 43.9395 161.251 41.3351 158.253 39.4958L99.1593 3.4393C97.156 2.21934 94.9794 1.37821 92.7261 0.821194C90.4717 0.26667 88.1382 0 85.8048 0C83.4701 0 81.1367 0.26667 78.8822 0.821194C76.629 1.37821 74.4512 2.21934 72.449 3.4393L13.3546 39.4958C11.3536 40.7195 9.5767 42.2909 7.99316 44.0753C5.62434 46.7557 3.68471 49.9184 2.28039 53.2966C0.885509 56.6786 0.00825375 60.2786 0 63.9422V136.057C0.00235821 138.5 0.400896 140.913 1.07181 143.253C2.08348 146.762 3.70475 150.118 5.77173 153.092C7.84578 156.061 10.3573 158.664 13.3546 160.503L72.449 196.561C74.4512 197.779 76.629 198.622 78.8822 199.178C81.1367 199.732 83.4701 199.999 85.8048 200C88.1382 199.999 90.4717 199.732 92.7261 199.178C94.9794 198.622 97.156 197.779 99.1593 196.561L158.253 160.503C160.254 159.28 162.032 157.708 163.615 155.923C165.984 153.244 167.924 150.082 169.328 146.703C170.723 143.321 171.6 139.72 171.608 136.057V63.9422C171.607 61.4998 171.207 59.0861 170.537 56.7459Z" />
</svg>
